# xmcd
#
# Track frame offsets:
#	150
#	17689
#	30069
#	41199
#	58269
#	70984
#	88627
#	106387
#	124573
#	138886
#	152039
#	164775
#
# Disc length: 2404 seconds
#
# Revision: 4
# Processed by: cddbd v1.4PL0 Copyright (c) Steve Scherf et al.
# Submitted via: CDmax 2.0
#
DISCID=9c09620c
DTITLE=Joe Calvert - Lost In Austin ... Again
DYEAR=1999
DGENRE=Country
TTITLE0=Tied To the Track
TTITLE1=I'm In the Game
TTITLE2=Lost In Austin Again
TTITLE3=If the Phone Doesn't Ring, It's Me
TTITLE4=My Cajun Rose
TTITLE5=No Contest
TTITLE6=I Still Dream of You
TTITLE7=High Price To Pay
TTITLE8=Cutest Little Butt On the Boat
TTITLE9=Have a Very Texas Christmas
TTITLE10=Moving Down the Road
TTITLE11=These Songs of Mine
EXTD=LABEL =Redfish Records\nID =RFR-0001\nUPC =750825-0001-28\nCOPYRIGH
EXTD=T =1999
EXTT0=
EXTT1=
EXTT2=
EXTT3=
EXTT4=
EXTT5=
EXTT6=
EXTT7=
EXTT8=
EXTT9=
EXTT10=
EXTT11=
PLAYORDER=
